<?xml version="1.0" encoding="UTF-8"?>
<svg id="Layer_2" xmlns="http://www.w3.org/2000/svg" version="1.1" viewBox="0 0 616.36 503.54" preserveAspectRatio="xMidYMid meet">
  <!-- Generator: Adobe Illustrator 30.1.0, SVG Export Plug-In . SVG Version: 2.1.1 Build 136)  -->
  <defs>
    <style>
      .st0 {
        fill: #020202;
      }

      .st1 {
        fill: #030303;
      }

      .st2 {
        fill: #ed1d24;
      }
    </style>
  </defs>
  <g>
    <path class="st0" d="M348.42,441.25c.61-1.33,1.71-2.19,2.64-3.2,2.05-2.24,3.9-4.64,5.53-7.26,3.44-5.53,5.4-11.65,6.42-18.18.73-4.63,1.03-9.27.93-13.96-.04-1.96-.01-3.92,0-5.87,0-3.08-.14-2.42,2.15-3.94,2.34-1.55,4.76-2.96,7.14-4.44,4.42-2.74,8.9-5.39,13.25-8.26,8.68-5.74,14.12-14.02,16.1-24.9.53-2.93.8-5.88.8-8.86,0-24.09.03-48.18-.02-72.27-.01-6.55-1.32-12.81-4.26-18.61-.98-1.94-2.13-3.77-3.39-5.51-.97-1.35-.94-1.45.04-2.85.85-1.22,1.73-2.41,2.56-3.66,4.27-6.46,6.97-13.65,8.43-21.41.55-2.91.86-5.86.99-8.89.29.02.54-.05.71.05,4.24,2.56,8.59,4.93,12.55,8.01,7.86,6.11,12.7,14.41,14.91,24.57.11.5.21.99.33,1.48.08.33.18.64.29,1.04.93-.1,1.62-.69,2.34-1.14,5.16-3.22,10.31-6.47,15.46-9.71,5.7-3.58,11.4-7.15,17.09-10.73,5.43-3.4,10.86-6.81,16.28-10.21,2.78-1.74,5.57-3.48,8.34-5.23,1.22-.77,2.46-1.51,3.39-2.71.61-.78.61-1.5,0-2.27-.62-.78-1.35-1.42-2.17-1.93-2.65-1.65-5.31-3.29-7.95-4.94-7.2-4.5-14.39-9-21.59-13.5-7.67-4.8-15.35-9.59-23.02-14.39-7.53-4.72-15.06-9.45-22.59-14.17-7.67-4.8-15.34-9.59-23.01-14.4-7.6-4.77-15.18-9.56-22.78-14.33-7.19-4.51-14.39-9-21.58-13.52-11.52-7.25-23.02-14.55-34.56-21.78-2.17-1.36-4.35-2.67-6.65-3.8-3.8-1.86-7.43-1.55-11.1.32-3.13,1.59-6.12,3.45-9.11,5.32-6.72,4.21-13.43,8.42-20.15,12.64-6.44,4.04-12.88,8.1-19.33,12.14-6.58,4.13-13.17,8.24-19.75,12.37-6.44,4.04-12.88,8.1-19.33,12.14-5.56,3.49-11.13,6.97-16.7,10.45-5.43,3.4-10.86,6.8-16.29,10.2-5.7,3.57-11.4,7.15-17.09,10.72-5.5,3.45-10.99,6.89-16.49,10.34-5.7,3.57-11.4,7.14-17.1,10.71-5.43,3.4-10.85,6.81-16.28,10.21-5.77,3.61-11.54,7.22-17.31,10.83-1.7,1.06-3.38,2.14-5.09,3.19-.69.42-1.01,1-.94,1.87.04.51,0,1.02,0,1.53,0,20.6,0,41.2,0,61.8,0,3.16-.32,2.64,2.25,4.34,4.21,2.78,6.8,6.89,7.66,12.26.77,4.81-.34,9.08-2.87,13-1,1.54-2.36,2.7-3.57,3.96-.04.62.34.99.56,1.43,1.03,2.15,1.54,4.43,1.54,6.86,0,18.3,0,36.6,0,54.9,0,.34,0,.68,0,1.02-.06,1.52-.23,1.7-1.69,1.76-.39.02-.78,0-1.18,0-5.8,0-11.6,0-17.41,0-2.94,0-2.74.23-2.74-3.1,0-17.96.02-35.92-.02-53.88,0-2.87.31-5.59,1.73-8.06.36-.62.19-1.12-.3-1.56-.24-.22-.46-.47-.69-.69-2.99-2.8-4.62-6.42-5.2-10.58-.6-4.28.33-8.28,2.43-11.95,1.39-2.43,3.26-4.34,5.57-5.73.55-.33,1.11-.63,1.67-.95.39-.52.26-1.14.26-1.72,0-18.94,0-37.87,0-56.81,0-.58.13-1.2-.26-1.71-3.97-2.58-8-5.04-11.8-7.91-2.38-1.8-4.77-3.6-6.74-5.94-.63-.75-1.23-1.55-1.76-2.39-1.98-3.15-1.88-6.41-.17-9.61,1.47-2.77,3.66-4.87,5.91-6.86,4.45-3.94,9.34-7.16,14.29-10.28,12.94-8.15,25.91-16.27,38.87-24.4,12.21-7.66,24.43-15.31,36.65-22.96,10.66-6.67,21.33-13.32,31.98-19.99,10.52-6.59,21.01-13.23,31.53-19.82,10.93-6.85,21.88-13.65,32.8-20.49,8.28-5.18,16.52-10.45,24.82-15.59,6.19-3.84,12.28-7.88,18.68-11.31,2.18-1.17,4.4-2.23,6.71-3.07,4.76-1.73,9.53-1.71,14.3-.02,4.42,1.57,8.51,3.92,12.52,6.41,10.07,6.24,20.11,12.54,30.16,18.83,7.53,4.72,15.05,9.47,22.58,14.19,7.6,4.76,15.21,9.5,22.81,14.26,7.53,4.72,15.06,9.46,22.59,14.18,5.77,3.61,11.55,7.21,17.32,10.82,5.29,3.32,10.58,6.65,15.87,9.97,5.7,3.57,11.4,7.14,17.1,10.71,6.52,4.08,13.03,8.17,19.54,12.24,5.84,3.65,11.68,7.3,17.52,10.96,5.29,3.32,10.58,6.64,15.87,9.97,3.73,2.34,7.48,4.65,11.18,7.05,3.7,2.4,7.31,4.95,10.73,7.82,1.81,1.52,3.41,3.26,4.95,5.07.42.5.76,1.08,1.13,1.63,2.5,3.65,2.15,8.26-.65,11.72-1.82,2.25-3.92,4.16-6.17,5.88-4.05,3.08-8.29,5.81-12.56,8.5-12.95,8.15-25.91,16.27-38.87,24.4-12.21,7.66-24.43,15.31-36.64,22.96-7.67,4.8-15.37,9.55-23.02,14.39-2.92,1.85-2.45,1.1-2.45,4.51-.02,23.67-.02,47.33,0,71,0,4.98-.72,9.8-2.26,14.5-2.7,8.29-7.38,14.93-13.97,20-2.76,2.12-5.76,3.8-8.67,5.63-8.21,5.15-16.44,10.26-24.67,15.37-7.14,4.44-14.29,8.85-21.44,13.28-4.9,3.04-9.78,6.1-14.69,9.13-.87.54-1.65,1.33-2.75,1.31l.03.03Z"/>
    <path class="st0" d="M179.52,313.05v-4.91c0-5.79,0-11.58,0-17.36,0-.6-.01-1.19-.01-1.79,0-.66-.28-1.12-.8-1.44-1.22-.78-2.41-1.59-3.64-2.35-6.86-4.29-13.73-8.55-20.58-12.84-6.45-4.04-12.88-8.1-19.33-12.14-7.6-4.76-15.21-9.51-22.81-14.26-2.51-1.57-5.02-3.16-7.55-4.69-1.12-.68-1.71-1.48-1.66-3.01.11-3.91.07-7.83.02-11.75-.01-1.15.34-1.87,1.28-2.45,6.4-3.95,12.78-7.95,19.16-11.94.27-.17.57-.3.82-.5.95-.75,1.78-.56,2.78.07,10.97,6.93,21.98,13.79,32.97,20.68,6.11,3.83,12.21,7.67,18.31,11.5.4.25.75.64,1.28.53.61-1.3.71-2.77,1.06-4.15,2.67-10.67,8.24-19.01,16.95-24.74,5.9-3.87,11.93-7.5,17.91-11.23,6.12-3.81,12.24-7.61,18.36-11.41,5.99-3.72,11.98-7.42,17.96-11.14,6.87-4.27,13.73-8.55,20.59-12.83,5.71-3.55,11.4-7.15,17.14-10.63,3.93-2.38,8.14-3.9,12.61-4.64,9.11-1.52,17.57.42,25.51,5.42,7.12,4.48,14.28,8.87,21.42,13.3,4.35,2.7,8.7,5.41,13.05,8.12.67.42,1.29.91,1.9,1.35-.18.88-.78,1.2-1.25,1.61-8.28,7.14-16.57,14.27-24.86,21.41-.18.16-.4.28-.56.46-.72.78-1.39.77-2.28.2-3.43-2.22-6.91-4.36-10.39-6.5-3.02-1.86-6.26-3.15-9.66-3.87-5.29-1.11-10.59-.98-15.83.48-3.21.89-6.19,2.41-9.05,4.19-8.64,5.36-17.28,10.73-25.91,16.1-10.06,6.26-20.11,12.53-30.16,18.81-1.97,1.23-3.99,2.38-5.86,3.77-7.72,5.76-12.52,13.68-14.47,23.61-.44,2.24-.64,4.53-.62,6.84.04,4.26-.03,8.51.03,12.77.02,1.48-.35,2.48-1.52,3.41-7.48,5.9-14.85,11.96-22.12,18.16-.06.05-.12.12-.18.16-3.06,1.72-5.22,4.57-7.63,7.12-.66.7-1.33,1.4-2.39,2.52Z"/>
    <path class="st0" d="M334.3,450c-.56.57-.7.78-.89.9-2.37,1.49-4.74,2.98-7.14,4.43-4.15,2.51-8.62,4.11-13.32,4.67-3.49.42-7.02.37-10.54-.17-5.38-.82-10.23-3.08-14.88-5.98-9.45-5.87-18.89-11.76-28.33-17.64-10.05-6.27-20.09-12.55-30.15-18.81-8.22-5.11-16.47-10.19-24.69-15.3-2.58-1.6-5.2-3.15-7.69-4.93-8.36-5.97-13.64-14.38-16.1-24.85-.71-3.03-1.07-6.17-1.07-9.33.02-10.89,0-21.78,0-32.67,0-.49,0-.99,0-1.42.62-.29.85.14,1.11.41,1.01,1.07,2.06,2.11,2.99,3.25.9,1.1,1.9,1.58,3.28,1.53,2.9-.1,5.8-.07,8.7-.01,1.14.02,2.14-.29,3.15-.81,4.31-2.23,8.64-4.42,12.97-6.62.42-.21.8-.54,1.31-.43.48.36.3.91.3,1.38.01,5.45.03,10.89,0,16.34-.03,7.99,2.16,15.21,6.32,21.76,2.9,4.56,6.64,8.12,11.05,10.87,10.53,6.56,21.06,13.12,31.59,19.67,9.79,6.08,19.56,12.19,29.38,18.21,3.99,2.45,8.31,3.85,12.9,4.4,2.35.28,4.67.49,7-.01.08-.02.16,0,.23-.01,1.78-.1,1.82-.12,2.33,1.69.64,2.27,1.22,4.56,1.8,6.85,1.11,4.42,1.98,8.9,2.75,13.4.24,1.42.81,2.52,1.75,3.5,1.36,1.41,2.71,2.84,3.98,4.34.86,1.01,1.79,1.49,3.09,1.42,2.1-.11,4.2-.03,6.79-.03Z"/>
  </g>
  <g>
    <path class="st0" d="M395.89,195.29c0-.68-.02-1.37-.1-2.04-.63-5.24-1.64-10.38-3.28-15.37-.17-.51-.18-1.16-.81-1.51-.64.53-1.26,1.03-1.87,1.55-21.39,18.52-42.78,37.03-64.17,55.55-11.34,9.81-22.68,19.62-34.03,29.43-.86.74-1.74,1.45-2.66,2.1-1.38.98-2.81,1.85-4.48,2.14-1.61.28-3.22.33-4.82-.03-2.95-1.04-5.99-1.24-9.06-.99-1.41.12-2.81.24-4.22.39-6.2.66-12.2,2.21-17.94,4.85-8.47,3.9-15.52,9.86-21.29,17.61-1.79,2.4-3.77,4.5-6.1,6.3-4.79,3.7-9.45,7.59-14.21,11.34-4.82,3.8-9.22,8.19-14.32,11.58-.67.44-1.18,1.13-1.36,2.01-.05.23-.11.51-.02.7.12.27.39.2.61.08.5-.25.99-.51,1.49-.76,8.15-4.16,16.3-8.32,24.45-12.49,4.6-2.36,4.78-2.38,9.56-.33,6.93,2.96,13.62,6.49,20.16,10.35,6.61,3.89,13.17,7.89,19.75,11.83.82.49,1.67.94,2.5,1.41.86.49,1.67.36,2.43-.22.45-.34.87-.73,1.3-1.1,1.91-1.62,3.81-3.28,5.75-4.87,13.65-11.16,27.31-22.31,40.96-33.46,15.09-12.33,30.18-24.67,45.29-36.98,4.26-3.48,8.52-6.95,12.53-10.78,6.17-5.88,10.94-12.86,14.07-21.11,2.53-6.66,4.03-13.58,3.93-20.84-.03-2.13-.02-4.26-.04-6.38ZM237.51,298.85c-1.5,1.19-2.91,2.54-4.62,3.38-.55.27-1.19.36-1.73.51-.18-.13-.36-.19-.4-.31-.05-.14-.01-.35.06-.48.46-.8,1.11-1.4,1.81-1.94,1.34-1.01,2.71-1.97,3.78-3.34.43-.55,1.02-.36,1.29.3.31.77.3,1.47-.19,1.86Z"/>
    <path class="st2" d="M377.61,293.12c-.24,13.69-3.75,25.19-10.49,35.58-2.97,4.58-6.53,8.47-10.76,11.64-12.53,9.35-24.66,19.29-36.99,28.93-2.03,1.59-4.03,3.25-6.04,4.87-.38.3-.74.63-1.13.92-2.76,2.08-4.06,1.81-6.02-1.24-.27-.42-.5-.87-.76-1.29-2.24-3.59-4.44-7.21-6.74-10.76-2.84-4.39-6.06-8.45-9.6-12.21-.67-.71-1.33-1.44-1.91-2.25-.66-.93-.62-1.66.18-2.5.84-.88,1.77-1.68,2.69-2.46,5.2-4.38,10.43-8.72,15.62-13.11,21.31-18.05,42.68-36.02,64.14-53.86.44-.36.86-.75,1.32-1.06.85-.59,1.47-.44,1.98.44.21.36.39.74.53,1.13,1.41,3.79,2.68,7.62,3.48,11.63.44,2.19.52,4.38.5,5.6Z"/>
    <path class="st1" d="M352.24,396.11c-.23,8.77-1.74,17.37-5.73,25.32-3.06,6.09-7.34,10.98-12.62,14.85-2.05,1.5-2.78,1.18-3.33-1.5-.91-4.47-1.7-8.97-2.76-13.41-1.32-5.52-2.9-10.93-4.85-16.22-.65-1.75-1.43-3.39-2.76-4.67-.4-.39-.73-.89-1.03-1.38-.64-1.05-.55-2.13.16-3.07.44-.58.99-1.1,1.58-1.5,8.11-5.49,15.66-11.87,23.54-17.73,1.29-.96,2.55-1.97,3.84-2.94.52-.39.9-.22,1.02.42.46,2.5.97,4.99,1.36,7.5.51,3.26.98,6.54,1.38,9.82.17,1.43.14,2.88.2,4.51Z"/>
  </g>
</svg>
